# xmcd
#
# Track frame offsets: 
#        150
#        24192
#        50650
#        66515
#        102955
#        130000
#        167810
#        184992
#        228992
#        266617
#        286835
#
# Disc length: 4027 seconds
#
# Revision: 2
# Processed by: cddbd v1.5.2PL0 Copyright (c) Steve Scherf et al.
# Submitted via: ExactAudioCopy v0.99pb5
#
DISCID=990fb90b
DTITLE=Guitar Crusher - Live In Berlin
DYEAR=1900
DGENRE=Blues
TTITLE0=Bartender's Advice
TTITLE1=I Feel The Pain
TTITLE2=I Got To Know
TTITLE3=My Heart's On Strike
TTITLE4=Cuddle Up
TTITLE5=I'll Catch Your Tears
TTITLE6=Stop It Baby
TTITLE7=Hambone Blues
TTITLE8=I'll Catch Your Tears
TTITLE9=Can't Just Put You Down
TTITLE10=Stop It Baby
EXTD=Sidney Selby ("Guitar Crusher") and Orchestra Featuring Benny Baile
EXTD=y, Trumpet 1987 Live At Quasimodo, Berlin\nTracks 2 - 10 recorded
EXTD=using a 'Dummy Head' - listen through headphones for best effect
EXTT0=
EXTT1=
EXTT2=
EXTT3=
EXTT4=
EXTT5=
EXTT6=
EXTT7=
EXTT8=
EXTT9=
EXTT10=
PLAYORDER=
